# Blender v2.83.0 OBJ File: 'goen.blend'
# www.blender.org
mtllib goen.mtl
o 円柱.001_円柱.002
v 0.000000 -0.007500 -0.110000
v 0.000000 0.007500 -0.110000
v 0.021460 -0.007500 -0.107886
v 0.021460 0.007500 -0.107886
v 0.042095 -0.007500 -0.101627
v 0.042095 0.007500 -0.101627
v 0.061113 -0.007500 -0.091462
v 0.061113 0.007500 -0.091462
v 0.077782 -0.007500 -0.077782
v 0.077782 0.007500 -0.077782
v 0.091462 -0.007500 -0.061113
v 0.091462 0.007500 -0.061113
v 0.101627 -0.007500 -0.042095
v 0.101627 0.007500 -0.042095
v 0.107886 -0.007500 -0.021460
v 0.107886 0.007500 -0.021460
v 0.110000 -0.007500 -0.000000
v 0.110000 0.007500 -0.000000
v 0.107886 -0.007500 0.021460
v 0.107886 0.007500 0.021460
v 0.101627 -0.007500 0.042095
v 0.101627 0.007500 0.042095
v 0.091462 -0.007500 0.061113
v 0.091462 0.007500 0.061113
v 0.077782 -0.007500 0.077782
v 0.077782 0.007500 0.077782
v 0.061113 -0.007500 0.091462
v 0.061113 0.007500 0.091462
v 0.042095 -0.007500 0.101627
v 0.042095 0.007500 0.101627
v 0.021460 -0.007500 0.107886
v 0.021460 0.007500 0.107886
v -0.000000 -0.007500 0.110000
v -0.000000 0.007500 0.110000
v -0.021460 -0.007500 0.107886
v -0.021460 0.007500 0.107886
v -0.042095 -0.007500 0.101627
v -0.042095 0.007500 0.101627
v -0.061113 -0.007500 0.091462
v -0.061113 0.007500 0.091462
v -0.077782 -0.007500 0.077782
v -0.077782 0.007500 0.077782
v -0.091462 -0.007500 0.061113
v -0.091462 0.007500 0.061113
v -0.101627 -0.007500 0.042095
v -0.101627 0.007500 0.042095
v -0.107886 -0.007500 0.021460
v -0.107886 0.007500 0.021460
v -0.110000 -0.007500 -0.000000
v -0.110000 0.007500 -0.000000
v -0.107886 -0.007500 -0.021460
v -0.107886 0.007500 -0.021460
v -0.101627 -0.007500 -0.042095
v -0.101627 0.007500 -0.042095
v -0.091462 -0.007500 -0.061113
v -0.091462 0.007500 -0.061113
v -0.077782 -0.007500 -0.077782
v -0.077782 0.007500 -0.077782
v -0.061113 -0.007500 -0.091462
v -0.061113 0.007500 -0.091462
v -0.042095 -0.007500 -0.101627
v -0.042095 0.007500 -0.101627
v -0.021460 -0.007500 -0.107886
v -0.021460 0.007500 -0.107886
v -0.017678 0.007500 -0.017678
v -0.017678 -0.007500 -0.017678
v -0.020787 0.007500 -0.013889
v -0.020787 -0.007500 -0.013889
v 0.017678 0.007500 -0.017678
v 0.017678 -0.007500 -0.017678
v 0.013889 0.007500 -0.020787
v 0.013889 -0.007500 -0.020787
v 0.000000 0.007500 -0.025000
v 0.000000 -0.007500 -0.025000
v -0.004877 0.007500 -0.024520
v -0.004877 -0.007500 -0.024520
v 0.009567 0.007500 -0.023097
v 0.009567 -0.007500 -0.023097
v 0.023097 0.007500 -0.009567
v 0.023097 -0.007500 -0.009567
v 0.020787 0.007500 -0.013889
v 0.020787 -0.007500 -0.013889
v 0.017678 0.007500 0.017678
v 0.017678 -0.007500 0.017678
v 0.013889 0.007500 0.020787
v 0.013889 -0.007500 0.020787
v 0.024520 0.007500 -0.004877
v 0.024520 -0.007500 -0.004877
v 0.009567 0.007500 0.023097
v 0.009567 -0.007500 0.023097
v -0.013889 0.007500 -0.020787
v -0.013889 -0.007500 -0.020787
v -0.025000 0.007500 -0.000000
v -0.025000 -0.007500 -0.000000
v -0.009567 0.007500 -0.023097
v -0.009567 -0.007500 -0.023097
v 0.020787 0.007500 0.013889
v 0.020787 -0.007500 0.013889
v 0.025000 0.007500 -0.000000
v 0.025000 -0.007500 -0.000000
v 0.024520 0.007500 0.004877
v 0.024520 -0.007500 0.004877
v 0.023097 0.007500 0.009567
v 0.023097 -0.007500 0.009567
v -0.023097 0.007500 -0.009567
v -0.023097 -0.007500 -0.009567
v -0.024520 0.007500 -0.004877
v -0.024520 -0.007500 -0.004877
v 0.004877 0.007500 -0.024520
v 0.004877 -0.007500 -0.024520
v 0.004877 0.007500 0.024520
v 0.004877 -0.007500 0.024520
v -0.000000 0.007500 0.025000
v -0.000000 -0.007500 0.025000
v -0.017678 0.007500 0.017678
v -0.017678 -0.007500 0.017678
v -0.004877 0.007500 0.024520
v -0.004877 -0.007500 0.024520
v -0.013889 0.007500 0.020787
v -0.013889 -0.007500 0.020787
v -0.009567 0.007500 0.023097
v -0.009567 -0.007500 0.023097
v -0.024520 0.007500 0.004877
v -0.024520 -0.007500 0.004877
v -0.023097 0.007500 0.009567
v -0.023097 -0.007500 0.009567
v -0.020787 0.007500 0.013889
v -0.020787 -0.007500 0.013889
vt 1.000000 0.500000
vt 1.000000 1.000000
vt 0.968750 1.000000
vt 0.968750 0.500000
vt 0.937500 1.000000
vt 0.937500 0.500000
vt 0.906250 1.000000
vt 0.906250 0.500000
vt 0.875000 1.000000
vt 0.875000 0.500000
vt 0.843750 1.000000
vt 0.843750 0.500000
vt 0.812500 1.000000
vt 0.812500 0.500000
vt 0.781250 1.000000
vt 0.781250 0.500000
vt 0.750000 1.000000
vt 0.750000 0.500000
vt 0.718750 1.000000
vt 0.718750 0.500000
vt 0.687500 1.000000
vt 0.687500 0.500000
vt 0.656250 1.000000
vt 0.656250 0.500000
vt 0.625000 1.000000
vt 0.625000 0.500000
vt 0.593750 1.000000
vt 0.593750 0.500000
vt 0.562500 1.000000
vt 0.562500 0.500000
vt 0.531250 1.000000
vt 0.531250 0.500000
vt 0.500000 1.000000
vt 0.500000 0.500000
vt 0.468750 1.000000
vt 0.468750 0.500000
vt 0.437500 1.000000
vt 0.437500 0.500000
vt 0.406250 1.000000
vt 0.406250 0.500000
vt 0.375000 1.000000
vt 0.375000 0.500000
vt 0.343750 1.000000
vt 0.343750 0.500000
vt 0.312500 1.000000
vt 0.312500 0.500000
vt 0.281250 1.000000
vt 0.281250 0.500000
vt 0.250000 1.000000
vt 0.250000 0.500000
vt 0.218750 1.000000
vt 0.218750 0.500000
vt 0.187500 1.000000
vt 0.187500 0.500000
vt 0.156250 1.000000
vt 0.156250 0.500000
vt 0.125000 1.000000
vt 0.125000 0.500000
vt 0.093750 1.000000
vt 0.093750 0.500000
vt 0.062500 1.000000
vt 0.062500 0.500000
vt 0.031250 1.000000
vt 0.031250 0.500000
vt 0.000000 1.000000
vt 0.000000 0.500000
vt 0.296822 0.485388
vt 0.250000 0.490000
vt 0.250000 0.304546
vt 0.260641 0.303497
vt 0.750000 0.490000
vt 0.796822 0.485388
vt 0.760641 0.303497
vt 0.750000 0.304545
vt 0.841844 0.471731
vt 0.770874 0.300393
vt 0.883337 0.449553
vt 0.780304 0.295353
vt 0.919706 0.419706
vt 0.788570 0.288569
vt 0.949553 0.383337
vt 0.795353 0.280304
vt 0.971731 0.341844
vt 0.800394 0.270874
vt 0.985388 0.296822
vt 0.803497 0.260641
vt 0.990000 0.250000
vt 0.804546 0.250000
vt 0.985388 0.203178
vt 0.803497 0.239359
vt 0.971731 0.158156
vt 0.800394 0.229126
vt 0.949553 0.116663
vt 0.795353 0.219696
vt 0.919706 0.080294
vt 0.788570 0.211430
vt 0.883337 0.050447
vt 0.780304 0.204647
vt 0.841844 0.028269
vt 0.770874 0.199606
vt 0.796822 0.014612
vt 0.760641 0.196503
vt 0.750000 0.010000
vt 0.750000 0.195454
vt 0.703178 0.014612
vt 0.739359 0.196503
vt 0.658156 0.028269
vt 0.729126 0.199606
vt 0.616663 0.050447
vt 0.719696 0.204647
vt 0.580294 0.080294
vt 0.711431 0.211430
vt 0.550447 0.116663
vt 0.704647 0.219696
vt 0.528269 0.158156
vt 0.699607 0.229126
vt 0.514611 0.203179
vt 0.696503 0.239359
vt 0.510000 0.250000
vt 0.695455 0.250000
vt 0.514612 0.296822
vt 0.696503 0.260641
vt 0.528269 0.341844
vt 0.699607 0.270874
vt 0.550447 0.383337
vt 0.704647 0.280304
vt 0.580295 0.419706
vt 0.711431 0.288569
vt 0.616663 0.449553
vt 0.719696 0.295353
vt 0.658156 0.471731
vt 0.729127 0.300393
vt 0.703179 0.485389
vt 0.739359 0.303497
vt 0.203179 0.485389
vt 0.239359 0.303497
vt 0.158156 0.471731
vt 0.229126 0.300394
vt 0.116663 0.449553
vt 0.219696 0.295353
vt 0.080295 0.419706
vt 0.211431 0.288570
vt 0.050447 0.383337
vt 0.204647 0.280304
vt 0.028269 0.341844
vt 0.199607 0.270874
vt 0.014612 0.296822
vt 0.196503 0.260641
vt 0.010000 0.250000
vt 0.195455 0.250000
vt 0.014611 0.203179
vt 0.196503 0.239359
vt 0.028269 0.158156
vt 0.199607 0.229126
vt 0.050447 0.116663
vt 0.204647 0.219696
vt 0.080294 0.080294
vt 0.211430 0.211431
vt 0.116663 0.050447
vt 0.219696 0.204647
vt 0.158156 0.028269
vt 0.229126 0.199607
vt 0.203178 0.014612
vt 0.239359 0.196503
vt 0.250000 0.010000
vt 0.250000 0.195455
vt 0.296822 0.014612
vt 0.260641 0.196503
vt 0.341844 0.028269
vt 0.270874 0.199607
vt 0.383337 0.050447
vt 0.280304 0.204647
vt 0.419706 0.080294
vt 0.288569 0.211431
vt 0.449553 0.116663
vt 0.295353 0.219696
vt 0.471731 0.158156
vt 0.300393 0.229126
vt 0.485388 0.203178
vt 0.303497 0.239359
vt 0.490000 0.250000
vt 0.304545 0.250000
vt 0.485388 0.296822
vt 0.303497 0.260641
vt 0.471731 0.341844
vt 0.300393 0.270874
vt 0.449553 0.383337
vt 0.295353 0.280304
vt 0.419706 0.419706
vt 0.288569 0.288570
vt 0.383337 0.449553
vt 0.280304 0.295353
vt 0.341844 0.471731
vt 0.270874 0.300394
vt 0.812500 0.712500
vt 0.812500 0.787500
vt 0.843750 0.787500
vt 0.843750 0.712500
vt 0.093750 0.712500
vt 0.093750 0.787500
vt 0.125000 0.787500
vt 0.125000 0.712500
vt 0.750000 0.712500
vt 0.750000 0.787500
vt 0.781250 0.787500
vt 0.781250 0.712500
vt 0.531250 0.712500
vt 0.531250 0.787500
vt 0.562500 0.787500
vt 0.562500 0.712500
vt 0.156250 0.787500
vt 0.156250 0.712500
vt 0.281250 0.712500
vt 0.281250 0.787500
vt 0.312500 0.787500
vt 0.312500 0.712500
vt 0.875000 0.712500
vt 0.875000 0.787500
vt 0.906250 0.787500
vt 0.906250 0.712500
vt 0.062500 0.712500
vt 0.062500 0.787500
vt 0.687500 0.712500
vt 0.687500 0.787500
vt 0.718750 0.787500
vt 0.718750 0.712500
vt 0.968750 0.712500
vt 0.968750 0.787500
vt 1.000000 0.787500
vt 1.000000 0.712500
vt 0.437500 0.712500
vt 0.437500 0.787500
vt 0.468750 0.787500
vt 0.468750 0.712500
vt 0.500000 0.787500
vt 0.500000 0.712500
vt 0.343750 0.712500
vt 0.343750 0.787500
vt 0.375000 0.787500
vt 0.375000 0.712500
vt 0.406250 0.787500
vt 0.406250 0.712500
vt 0.593750 0.712500
vt 0.593750 0.787500
vt 0.625000 0.787500
vt 0.625000 0.712500
vt 0.187500 0.712500
vt 0.187500 0.787500
vt 0.218750 0.787500
vt 0.218750 0.712500
vt 0.937500 0.712500
vt 0.937500 0.787500
vt 0.656250 0.712500
vt 0.656250 0.787500
vt 0.250000 0.787500
vt 0.250000 0.712500
vt 0.000000 0.712500
vt 0.000000 0.787500
vt 0.031250 0.787500
vt 0.031250 0.712500
vn 0.0000 -0.6857 -0.7279
vn 0.0000 0.6857 -0.7279
vn 0.1420 0.6857 -0.7139
vn 0.1420 -0.6857 -0.7139
vn 0.2785 0.6857 -0.6725
vn 0.2785 -0.6857 -0.6725
vn 0.4044 0.6857 -0.6052
vn 0.4044 -0.6857 -0.6052
vn 0.5147 0.6857 -0.5147
vn 0.5147 -0.6857 -0.5147
vn 0.6052 0.6857 -0.4044
vn 0.6052 -0.6857 -0.4044
vn 0.6725 0.6857 -0.2785
vn 0.6725 -0.6857 -0.2785
vn 0.7139 0.6857 -0.1420
vn 0.7139 -0.6857 -0.1420
vn 0.7279 0.6857 0.0000
vn 0.7279 -0.6857 0.0000
vn 0.7139 0.6857 0.1420
vn 0.7139 -0.6857 0.1420
vn 0.6725 0.6857 0.2785
vn 0.6725 -0.6857 0.2785
vn 0.6052 0.6857 0.4044
vn 0.6052 -0.6857 0.4044
vn 0.5147 0.6857 0.5147
vn 0.5147 -0.6857 0.5147
vn 0.4044 0.6857 0.6052
vn 0.4044 -0.6857 0.6052
vn 0.2785 0.6857 0.6725
vn 0.2785 -0.6857 0.6725
vn 0.1420 0.6857 0.7139
vn 0.1420 -0.6857 0.7139
vn 0.0000 0.6857 0.7279
vn 0.0000 -0.6857 0.7279
vn -0.1420 0.6857 0.7139
vn -0.1420 -0.6857 0.7139
vn -0.2785 0.6857 0.6725
vn -0.2785 -0.6857 0.6725
vn -0.4044 0.6857 0.6052
vn -0.4044 -0.6857 0.6052
vn -0.5147 0.6857 0.5147
vn -0.5147 -0.6857 0.5147
vn -0.6052 0.6857 0.4044
vn -0.6052 -0.6857 0.4044
vn -0.6725 0.6857 0.2785
vn -0.6725 -0.6857 0.2785
vn -0.7139 0.6857 0.1420
vn -0.7139 -0.6857 0.1420
vn -0.7279 0.6857 0.0000
vn -0.7279 -0.6857 0.0000
vn -0.7139 0.6857 -0.1420
vn -0.7139 -0.6857 -0.1420
vn -0.6725 0.6857 -0.2785
vn -0.6725 -0.6857 -0.2785
vn -0.6052 0.6857 -0.4044
vn -0.6052 -0.6857 -0.4044
vn -0.5147 0.6857 -0.5147
vn -0.5147 -0.6857 -0.5147
vn -0.4044 0.6857 -0.6052
vn -0.4044 -0.6857 -0.6052
vn -0.2785 0.6857 -0.6725
vn -0.2785 -0.6857 -0.6725
vn -0.1420 0.6857 -0.7139
vn -0.1420 -0.6857 -0.7139
vn 0.0000 0.7298 0.6836
vn -0.1333 0.7298 0.6705
vn -0.1333 -0.7298 0.6705
vn 0.0000 -0.7298 0.6836
vn -0.2616 -0.7298 0.6316
vn -0.3798 -0.7298 0.5684
vn -0.4834 -0.7298 0.4834
vn -0.5684 -0.7298 0.3798
vn -0.6316 -0.7298 0.2616
vn -0.6705 -0.7298 0.1333
vn -0.6836 -0.7298 0.0000
vn -0.6705 -0.7298 -0.1333
vn -0.6316 -0.7298 -0.2616
vn -0.5684 -0.7298 -0.3798
vn -0.4834 -0.7298 -0.4834
vn -0.3798 -0.7298 -0.5684
vn -0.2616 -0.7298 -0.6316
vn -0.1333 -0.7298 -0.6705
vn 0.0000 -0.7298 -0.6836
vn 0.1333 -0.7298 -0.6705
vn 0.2616 -0.7298 -0.6316
vn 0.3798 -0.7298 -0.5684
vn 0.4834 -0.7298 -0.4834
vn 0.5684 -0.7298 -0.3798
vn 0.6316 -0.7298 -0.2616
vn 0.6705 -0.7298 -0.1333
vn 0.6836 -0.7298 0.0000
vn 0.6705 -0.7298 0.1334
vn 0.6316 -0.7298 0.2616
vn 0.5684 -0.7298 0.3798
vn 0.4834 -0.7298 0.4834
vn 0.3798 -0.7298 0.5684
vn 0.2616 -0.7298 0.6316
vn 0.1333 -0.7298 0.6705
vn 0.1333 0.7298 0.6705
vn 0.2616 0.7298 0.6316
vn 0.3798 0.7298 0.5684
vn 0.4834 0.7298 0.4834
vn 0.5684 0.7298 0.3798
vn 0.6316 0.7298 0.2616
vn 0.6705 0.7298 0.1334
vn 0.6836 0.7298 0.0000
vn 0.6705 0.7298 -0.1333
vn 0.6316 0.7298 -0.2616
vn 0.5684 0.7298 -0.3798
vn 0.4834 0.7298 -0.4834
vn 0.3798 0.7298 -0.5684
vn 0.2616 0.7298 -0.6316
vn 0.1333 0.7298 -0.6705
vn 0.0000 0.7298 -0.6836
vn -0.1333 0.7298 -0.6705
vn -0.2616 0.7298 -0.6316
vn -0.3798 0.7298 -0.5684
vn -0.4834 0.7298 -0.4834
vn -0.5684 0.7298 -0.3798
vn -0.6316 0.7298 -0.2616
vn -0.6705 0.7298 -0.1333
vn -0.6836 0.7298 0.0000
vn -0.6705 0.7298 0.1333
vn -0.6316 0.7298 0.2616
vn -0.5684 0.7298 0.3798
vn -0.4834 0.7298 0.4834
vn -0.3798 0.7298 0.5684
vn -0.2616 0.7298 0.6316
usemtl マテリアル
s 1
f 1/1/1 2/2/2 4/3/3 3/4/4
f 3/4/4 4/3/3 6/5/5 5/6/6
f 5/6/6 6/5/5 8/7/7 7/8/8
f 7/8/8 8/7/7 10/9/9 9/10/10
f 9/10/10 10/9/9 12/11/11 11/12/12
f 11/12/12 12/11/11 14/13/13 13/14/14
f 13/14/14 14/13/13 16/15/15 15/16/16
f 15/16/16 16/15/15 18/17/17 17/18/18
f 17/18/18 18/17/17 20/19/19 19/20/20
f 19/20/20 20/19/19 22/21/21 21/22/22
f 21/22/22 22/21/21 24/23/23 23/24/24
f 23/24/24 24/23/23 26/25/25 25/26/26
f 25/26/26 26/25/25 28/27/27 27/28/28
f 27/28/28 28/27/27 30/29/29 29/30/30
f 29/30/30 30/29/29 32/31/31 31/32/32
f 31/32/32 32/31/31 34/33/33 33/34/34
f 33/34/34 34/33/33 36/35/35 35/36/36
f 35/36/36 36/35/35 38/37/37 37/38/38
f 37/38/38 38/37/37 40/39/39 39/40/40
f 39/40/40 40/39/39 42/41/41 41/42/42
f 41/42/42 42/41/41 44/43/43 43/44/44
f 43/44/44 44/43/43 46/45/45 45/46/46
f 45/46/46 46/45/45 48/47/47 47/48/48
f 47/48/48 48/47/47 50/49/49 49/50/50
f 49/50/50 50/49/49 52/51/51 51/52/52
f 51/52/52 52/51/51 54/53/53 53/54/54
f 53/54/54 54/53/53 56/55/55 55/56/56
f 55/56/56 56/55/55 58/57/57 57/58/58
f 57/58/58 58/57/57 60/59/59 59/60/60
f 59/60/60 60/59/59 62/61/61 61/62/62
f 61/62/62 62/61/61 64/63/63 63/64/64
f 63/64/64 64/63/63 2/65/2 1/66/1
f 4/67/3 2/68/2 73/69/65 109/70/66
f 1/71/1 3/72/4 110/73/67 74/74/68
f 3/72/4 5/75/6 78/76/69 110/73/67
f 5/75/6 7/77/8 72/78/70 78/76/69
f 7/77/8 9/79/10 70/80/71 72/78/70
f 9/79/10 11/81/12 82/82/72 70/80/71
f 11/81/12 13/83/14 80/84/73 82/82/72
f 13/83/14 15/85/16 88/86/74 80/84/73
f 15/85/16 17/87/18 100/88/75 88/86/74
f 17/87/18 19/89/20 102/90/76 100/88/75
f 19/89/20 21/91/22 104/92/77 102/90/76
f 21/91/22 23/93/24 98/94/78 104/92/77
f 23/93/24 25/95/26 84/96/79 98/94/78
f 25/95/26 27/97/28 86/98/80 84/96/79
f 27/97/28 29/99/30 90/100/81 86/98/80
f 29/99/30 31/101/32 112/102/82 90/100/81
f 31/101/32 33/103/34 114/104/83 112/102/82
f 33/103/34 35/105/36 118/106/84 114/104/83
f 35/105/36 37/107/38 122/108/85 118/106/84
f 37/107/38 39/109/40 120/110/86 122/108/85
f 39/109/40 41/111/42 116/112/87 120/110/86
f 41/111/42 43/113/44 128/114/88 116/112/87
f 43/113/44 45/115/46 126/116/89 128/114/88
f 45/115/46 47/117/48 124/118/90 126/116/89
f 47/117/48 49/119/50 94/120/91 124/118/90
f 49/119/50 51/121/52 108/122/92 94/120/91
f 51/121/52 53/123/54 106/124/93 108/122/92
f 53/123/54 55/125/56 68/126/94 106/124/93
f 55/125/56 57/127/58 66/128/95 68/126/94
f 57/127/58 59/129/60 92/130/96 66/128/95
f 59/129/60 61/131/62 96/132/97 92/130/96
f 61/131/62 63/133/64 76/134/98 96/132/97
f 63/133/64 1/71/1 74/74/68 76/134/98
f 2/68/2 64/135/63 75/136/99 73/69/65
f 64/135/63 62/137/61 95/138/100 75/136/99
f 62/137/61 60/139/59 91/140/101 95/138/100
f 60/139/59 58/141/57 65/142/102 91/140/101
f 58/141/57 56/143/55 67/144/103 65/142/102
f 56/143/55 54/145/53 105/146/104 67/144/103
f 54/145/53 52/147/51 107/148/105 105/146/104
f 52/147/51 50/149/49 93/150/106 107/148/105
f 50/149/49 48/151/47 123/152/107 93/150/106
f 48/151/47 46/153/45 125/154/108 123/152/107
f 46/153/45 44/155/43 127/156/109 125/154/108
f 44/155/43 42/157/41 115/158/110 127/156/109
f 42/157/41 40/159/39 119/160/111 115/158/110
f 40/159/39 38/161/37 121/162/112 119/160/111
f 38/161/37 36/163/35 117/164/113 121/162/112
f 36/163/35 34/165/33 113/166/114 117/164/113
f 34/165/33 32/167/31 111/168/115 113/166/114
f 32/167/31 30/169/29 89/170/116 111/168/115
f 30/169/29 28/171/27 85/172/117 89/170/116
f 28/171/27 26/173/25 83/174/118 85/172/117
f 26/173/25 24/175/23 97/176/119 83/174/118
f 24/175/23 22/177/21 103/178/120 97/176/119
f 22/177/21 20/179/19 101/180/121 103/178/120
f 20/179/19 18/181/17 99/182/122 101/180/121
f 18/181/17 16/183/15 87/184/123 99/182/122
f 16/183/15 14/185/13 79/186/124 87/184/123
f 14/185/13 12/187/11 81/188/125 79/186/124
f 12/187/11 10/189/9 69/190/126 81/188/125
f 10/189/9 8/191/7 71/192/127 69/190/126
f 8/191/7 6/193/5 77/194/128 71/192/127
f 6/193/5 4/67/3 109/70/66 77/194/128
f 80/195/73 79/196/124 81/197/125 82/198/72
f 92/199/96 91/200/101 65/201/102 66/202/95
f 100/203/75 99/204/122 87/205/123 88/206/74
f 112/207/82 111/208/115 89/209/116 90/210/81
f 66/202/95 65/201/102 67/211/103 68/212/94
f 124/213/90 123/214/107 125/215/108 126/216/89
f 70/217/71 69/218/126 71/219/127 72/220/70
f 96/221/97 95/222/100 91/200/101 92/199/96
f 104/223/77 103/224/120 101/225/121 102/226/76
f 110/227/67 109/228/66 73/229/65 74/230/68
f 122/231/85 121/232/112 117/233/113 118/234/84
f 118/234/84 117/233/113 113/235/114 114/236/83
f 114/236/83 113/235/114 111/208/115 112/207/82
f 128/237/88 127/238/109 115/239/110 116/240/87
f 116/240/87 115/239/110 119/241/111 120/242/86
f 86/243/80 85/244/117 83/245/118 84/246/79
f 106/247/93 105/248/104 107/249/105 108/250/92
f 78/251/69 77/252/128 109/228/66 110/227/67
f 126/216/89 125/215/108 127/238/109 128/237/88
f 88/206/74 87/205/123 79/196/124 80/195/73
f 82/198/72 81/197/125 69/218/126 70/217/71
f 98/253/78 97/254/119 103/224/120 104/223/77
f 84/246/79 83/245/118 97/254/119 98/253/78
f 108/250/92 107/249/105 93/255/106 94/256/91
f 90/210/81 89/209/116 85/244/117 86/243/80
f 102/226/76 101/225/121 99/204/122 100/203/75
f 68/212/94 67/211/103 105/248/104 106/247/93
f 74/257/68 73/258/65 75/259/99 76/260/98
f 72/220/70 71/219/127 77/252/128 78/251/69
f 120/242/86 119/241/111 121/232/112 122/231/85
f 94/256/91 93/255/106 123/214/107 124/213/90
f 76/260/98 75/259/99 95/222/100 96/221/97
