# Blender v2.83.0 OBJ File: 'chukichi.blend'
# www.blender.org
mtllib chukichi.mtl
o Curve
v -0.152959 0.069047 0.000000
v -0.152959 0.057393 0.000000
v -0.182198 0.057393 0.000000
v -0.181210 0.104797 0.000000
v -0.181210 0.127314 0.000000
v -0.181803 0.151017 0.000000
v -0.180420 0.152399 0.000000
v -0.150984 0.151807 0.000000
v -0.115028 0.151807 0.000000
v -0.115028 0.187557 0.000000
v -0.113645 0.188940 0.000000
v -0.087172 0.188940 0.000000
v -0.085789 0.187557 0.000000
v -0.085789 0.151807 0.000000
v -0.047265 0.151807 0.000000
v -0.017829 0.152202 0.000000
v -0.016446 0.150819 0.000000
v -0.016841 0.127314 0.000000
v -0.016841 0.105390 0.000000
v -0.015853 0.058973 0.000000
v -0.045854 0.058973 0.000000
v -0.045854 0.069047 0.000000
v -0.085789 0.069047 0.000000
v -0.085789 0.057986 0.000000
v -0.084801 0.000310 0.000000
v -0.116016 0.000310 0.000000
v -0.115028 0.057986 0.000000
v -0.115028 0.069047 0.000000
v -0.115028 0.128104 0.000000
v -0.152959 0.128104 0.000000
v -0.152959 0.092749 0.000000
v -0.115028 0.092749 0.000000
v -0.045854 0.092749 0.000000
v -0.045854 0.128104 0.000000
v -0.085789 0.128104 0.000000
v -0.085789 0.092749 0.000000
v 0.061590 0.013742 0.000000
v 0.061590 0.000903 0.000000
v 0.032747 0.000903 0.000000
v 0.033734 0.038826 0.000000
v 0.033734 0.054825 0.000000
v 0.033142 0.083070 0.000000
v 0.034327 0.084255 0.000000
v 0.063961 0.083663 0.000000
v 0.133502 0.083663 0.000000
v 0.162938 0.084255 0.000000
v 0.164321 0.083070 0.000000
v 0.163729 0.054825 0.000000
v 0.163729 0.040209 0.000000
v 0.164716 0.001298 0.000000
v 0.134885 0.001298 0.000000
v 0.134885 0.013742 0.000000
v 0.134885 0.060948 0.000000
v 0.061590 0.060948 0.000000
v 0.061590 0.036456 0.000000
v 0.134885 0.036456 0.000000
v 0.159806 0.165830 0.000000
v 0.192008 0.166423 0.000000
v 0.193391 0.165040 0.000000
v 0.193391 0.142918 0.000000
v 0.192008 0.141536 0.000000
v 0.159806 0.142128 0.000000
v 0.111799 0.142128 0.000000
v 0.111799 0.122179 0.000000
v 0.142025 0.122179 0.000000
v 0.174227 0.122771 0.000000
v 0.175610 0.121389 0.000000
v 0.175610 0.099267 0.000000
v 0.174227 0.097884 0.000000
v 0.142025 0.098477 0.000000
v 0.053123 0.098477 0.000000
v 0.023094 0.097884 0.000000
v 0.021514 0.099267 0.000000
v 0.021514 0.121784 0.000000
v 0.023490 0.122771 0.000000
v 0.053123 0.122179 0.000000
v 0.082757 0.122179 0.000000
v 0.082757 0.142128 0.000000
v 0.035908 0.142128 0.000000
v 0.005878 0.141536 0.000000
v 0.004298 0.142918 0.000000
v 0.004298 0.165435 0.000000
v 0.006274 0.166423 0.000000
v 0.035908 0.165830 0.000000
v 0.082729 0.165830 0.000000
v 0.082729 0.187557 0.000000
v 0.084112 0.189335 0.000000
v 0.110190 0.189335 0.000000
v 0.111770 0.187755 0.000000
v 0.111770 0.165830 0.000000
v -0.152959 0.069047 0.117818
v -0.152959 0.057393 0.117818
v -0.182198 0.057393 0.117818
v -0.181210 0.104797 0.117818
v -0.181210 0.127314 0.117818
v -0.181803 0.151017 0.117818
v -0.180420 0.152399 0.117818
v -0.150984 0.151807 0.117818
v -0.115028 0.151807 0.117818
v -0.115028 0.187557 0.117818
v -0.113645 0.188940 0.117818
v -0.087172 0.188940 0.117818
v -0.085789 0.187557 0.117818
v -0.085789 0.151807 0.117818
v -0.047265 0.151807 0.117818
v -0.017829 0.152202 0.117818
v -0.016446 0.150819 0.117818
v -0.016841 0.127314 0.117818
v -0.016841 0.105390 0.117818
v -0.015853 0.058973 0.117818
v -0.045854 0.058973 0.117818
v -0.045854 0.069047 0.117818
v -0.085789 0.069047 0.117818
v -0.085789 0.057986 0.117818
v -0.084801 0.000310 0.117818
v -0.116016 0.000310 0.117818
v -0.115028 0.057986 0.117818
v -0.115028 0.069047 0.117818
v -0.115028 0.128104 0.117818
v -0.152959 0.128104 0.117818
v -0.152959 0.092749 0.117818
v -0.115028 0.092749 0.117818
v -0.045854 0.092749 0.117818
v -0.045854 0.128104 0.117818
v -0.085789 0.128104 0.117818
v -0.085789 0.092749 0.117818
v 0.061590 0.013742 0.117818
v 0.061590 0.000903 0.117818
v 0.032747 0.000903 0.117818
v 0.033734 0.038826 0.117818
v 0.033734 0.054825 0.117818
v 0.033142 0.083070 0.117818
v 0.034327 0.084255 0.117818
v 0.063961 0.083663 0.117818
v 0.133502 0.083663 0.117818
v 0.162938 0.084255 0.117818
v 0.164321 0.083070 0.117818
v 0.163729 0.054825 0.117818
v 0.163729 0.040209 0.117818
v 0.164716 0.001298 0.117818
v 0.134885 0.001298 0.117818
v 0.134885 0.013742 0.117818
v 0.134885 0.060948 0.117818
v 0.061590 0.060948 0.117818
v 0.061590 0.036456 0.117818
v 0.134885 0.036456 0.117818
v 0.159806 0.165830 0.117818
v 0.192008 0.166423 0.117818
v 0.193391 0.165040 0.117818
v 0.193391 0.142918 0.117818
v 0.192008 0.141536 0.117818
v 0.159806 0.142128 0.117818
v 0.111799 0.142128 0.117818
v 0.111799 0.122179 0.117818
v 0.142025 0.122179 0.117818
v 0.174227 0.122771 0.117818
v 0.175610 0.121389 0.117818
v 0.175610 0.099267 0.117818
v 0.174227 0.097884 0.117818
v 0.142025 0.098477 0.117818
v 0.053123 0.098477 0.117818
v 0.023094 0.097884 0.117818
v 0.021514 0.099267 0.117818
v 0.021514 0.121784 0.117818
v 0.023490 0.122771 0.117818
v 0.053123 0.122179 0.117818
v 0.082757 0.122179 0.117818
v 0.082757 0.142128 0.117818
v 0.035908 0.142128 0.117818
v 0.005878 0.141536 0.117818
v 0.004298 0.142918 0.117818
v 0.004298 0.165435 0.117818
v 0.006274 0.166423 0.117818
v 0.035908 0.165830 0.117818
v 0.082729 0.165830 0.117818
v 0.082729 0.187557 0.117818
v 0.084112 0.189335 0.117818
v 0.110190 0.189335 0.117818
v 0.111770 0.187755 0.117818
v 0.111770 0.165830 0.117818
vt 0.257143 0.000000
vt 0.285714 0.000000
vt 0.314286 0.000000
vt 0.342857 0.000000
vt 0.228571 0.000000
vt 0.371429 0.000000
vt 0.142857 0.000000
vt 0.171429 0.000000
vt 0.200000 0.000000
vt 0.400000 0.000000
vt 0.428571 0.000000
vt 0.457143 0.000000
vt 0.114286 0.000000
vt 0.828571 0.000000
vt 0.800000 0.000000
vt 0.971429 0.000000
vt 0.942857 0.000000
vt 0.485714 0.000000
vt 0.857143 0.000000
vt 0.885714 0.000000
vt 1.000000 0.000000
vt 0.914286 0.000000
vt 0.085714 0.000000
vt 0.514286 0.000000
vt 0.542857 0.000000
vt 0.057143 0.000000
vt 0.000000 0.000000
vt 0.771429 0.000000
vt 0.628571 0.000000
vt 0.600000 0.000000
vt 0.028571 0.000000
vt 0.742857 0.000000
vt 0.657143 0.000000
vt 0.571429 0.000000
vt 0.714286 0.000000
vt 0.685714 0.000000
vt 0.924528 0.000000
vt 0.943396 0.000000
vt 0.962264 0.000000
vt 0.981132 0.000000
vt 1.000000 0.000000
vt 0.905660 0.000000
vt 0.849057 0.000000
vt 0.867925 0.000000
vt 0.886792 0.000000
vt 0.377358 0.000000
vt 0.396226 0.000000
vt 0.415094 0.000000
vt 0.830189 0.000000
vt 0.433962 0.000000
vt 0.811321 0.000000
vt 0.792453 0.000000
vt 0.773585 0.000000
vt 0.490566 0.000000
vt 0.471698 0.000000
vt 0.452830 0.000000
vt 0.754717 0.000000
vt 0.509434 0.000000
vt 0.698113 0.000000
vt 0.716981 0.000000
vt 0.735849 0.000000
vt 0.528302 0.000000
vt 0.547170 0.000000
vt 0.566038 0.000000
vt 0.679245 0.000000
vt 0.584906 0.000000
vt 0.660377 0.000000
vt 0.641509 0.000000
vt 0.622642 0.000000
vt 0.603774 0.000000
vt 0.094340 0.000000
vt 0.113208 0.000000
vt 0.132075 0.000000
vt 0.150943 0.000000
vt 0.169811 0.000000
vt 0.188679 0.000000
vt 0.075472 0.000000
vt 0.320755 0.000000
vt 0.301887 0.000000
vt 0.207547 0.000000
vt 0.339623 0.000000
vt 0.358491 0.000000
vt 0.056604 0.000000
vt 0.226415 0.000000
vt 0.245283 0.000000
vt 0.037736 0.000000
vt 0.000000 0.000000
vt 0.283019 0.000000
vt 0.018868 0.000000
vt 0.264151 0.000000
vt 0.257143 0.000000
vt 0.314286 0.000000
vt 0.285714 0.000000
vt 0.342857 0.000000
vt 0.228571 0.000000
vt 0.371429 0.000000
vt 0.142857 0.000000
vt 0.200000 0.000000
vt 0.171429 0.000000
vt 0.400000 0.000000
vt 0.457143 0.000000
vt 0.428571 0.000000
vt 0.114286 0.000000
vt 0.828571 0.000000
vt 0.800000 0.000000
vt 0.971429 0.000000
vt 0.942857 0.000000
vt 0.485714 0.000000
vt 0.857143 0.000000
vt 0.885714 0.000000
vt 1.000000 0.000000
vt 0.914286 0.000000
vt 0.085714 0.000000
vt 0.514286 0.000000
vt 0.542857 0.000000
vt 0.057143 0.000000
vt 0.000000 0.000000
vt 0.771429 0.000000
vt 0.628571 0.000000
vt 0.600000 0.000000
vt 0.028571 0.000000
vt 0.742857 0.000000
vt 0.657143 0.000000
vt 0.571429 0.000000
vt 0.714286 0.000000
vt 0.685714 0.000000
vt 0.924528 0.000000
vt 0.962264 0.000000
vt 0.943396 0.000000
vt 0.981132 0.000000
vt 1.000000 0.000000
vt 0.905660 0.000000
vt 0.849057 0.000000
vt 0.886792 0.000000
vt 0.867925 0.000000
vt 0.377358 0.000000
vt 0.415094 0.000000
vt 0.396226 0.000000
vt 0.830189 0.000000
vt 0.433962 0.000000
vt 0.811321 0.000000
vt 0.792453 0.000000
vt 0.773585 0.000000
vt 0.490566 0.000000
vt 0.471698 0.000000
vt 0.452830 0.000000
vt 0.754717 0.000000
vt 0.509434 0.000000
vt 0.698113 0.000000
vt 0.735849 0.000000
vt 0.716981 0.000000
vt 0.528302 0.000000
vt 0.566038 0.000000
vt 0.547170 0.000000
vt 0.679245 0.000000
vt 0.584906 0.000000
vt 0.660377 0.000000
vt 0.641509 0.000000
vt 0.622642 0.000000
vt 0.603774 0.000000
vt 0.094340 0.000000
vt 0.132075 0.000000
vt 0.113208 0.000000
vt 0.150943 0.000000
vt 0.188679 0.000000
vt 0.169811 0.000000
vt 0.075472 0.000000
vt 0.320755 0.000000
vt 0.301887 0.000000
vt 0.207547 0.000000
vt 0.339623 0.000000
vt 0.358491 0.000000
vt 0.056604 0.000000
vt 0.226415 0.000000
vt 0.245283 0.000000
vt 0.037736 0.000000
vt 0.000000 0.000000
vt 0.283019 0.000000
vt 0.018868 0.000000
vt 0.264151 0.000000
vn 0.0000 0.0000 -1.0000
vn 0.0000 0.0000 1.0000
vn -0.9999 0.0171 0.0000
vn 0.0000 -1.0000 -0.0000
vn 0.0000 1.0000 0.0000
vn 1.0000 0.0000 0.0000
vn 0.9998 0.0213 0.0000
vn -1.0000 0.0000 0.0000
vn -0.9998 0.0208 0.0000
vn -0.9997 -0.0250 0.0000
vn -0.6584 -0.7526 0.0000
vn 0.9999 0.0171 0.0000
vn 0.0197 -0.9998 0.0000
vn -0.7893 0.6140 0.0000
vn 0.9998 -0.0210 -0.0000
vn -0.7070 0.7072 0.0000
vn 0.7070 0.7072 0.0000
vn -0.0184 -0.9998 0.0000
vn -0.4471 0.8945 0.0000
vn 0.9999 -0.0168 0.0000
vn 0.7070 -0.7072 0.0000
vn 0.0200 0.9998 0.0000
vn -0.0184 0.9998 0.0000
vn 0.9997 0.0254 0.0000
vn -0.9997 0.0260 0.0000
vn 0.0201 0.9998 0.0000
vn -0.0201 0.9998 0.0000
vn -0.0134 0.9999 0.0000
vn 0.6507 0.7593 0.0000
vn -0.9998 -0.0210 -0.0000
usemtl SVGMat
s off
f 10/1/1 11/2/1 12/3/1
f 10/1/1 12/3/1 13/4/1
f 9/5/1 10/1/1 13/4/1
f 9/5/1 13/4/1 14/6/1
f 6/7/1 7/8/1 8/9/1
f 15/10/1 16/11/1 17/12/1
f 6/7/1 8/9/1 9/5/1
f 6/7/1 9/5/1 14/6/1
f 6/7/1 14/6/1 15/10/1
f 6/7/1 15/10/1 17/12/1
f 5/13/1 6/7/1 17/12/1
f 5/13/1 17/12/1 30/14/1
f 30/14/1 17/12/1 29/15/1
f 29/15/1 17/12/1 35/16/1
f 35/16/1 17/12/1 34/17/1
f 34/17/1 17/12/1 18/18/1
f 5/13/1 30/14/1 31/19/1
f 32/20/1 29/15/1 35/16/1
f 32/20/1 35/16/1 36/21/1
f 33/22/1 34/17/1 18/18/1
f 4/23/1 5/13/1 31/19/1
f 33/22/1 18/18/1 19/24/1
f 33/22/1 19/24/1 20/25/1
f 3/26/1 4/23/1 31/19/1
f 3/26/1 31/19/1 32/20/1
f 3/26/1 32/20/1 1/27/1
f 1/27/1 32/20/1 36/21/1
f 1/27/1 36/21/1 33/22/1
f 1/27/1 33/22/1 28/28/1
f 28/28/1 33/22/1 23/29/1
f 23/29/1 33/22/1 22/30/1
f 22/30/1 33/22/1 20/25/1
f 3/26/1 1/27/1 2/31/1
f 27/32/1 28/28/1 23/29/1
f 27/32/1 23/29/1 24/33/1
f 21/34/1 22/30/1 20/25/1
f 26/35/1 27/32/1 24/33/1
f 26/35/1 24/33/1 25/36/1
f 86/37/1 87/38/1 88/39/1
f 86/37/1 88/39/1 89/40/1
f 86/37/1 89/40/1 90/41/1
f 85/42/1 86/37/1 90/41/1
f 82/43/1 83/44/1 84/45/1
f 57/46/1 58/47/1 59/48/1
f 82/43/1 84/45/1 85/42/1
f 82/43/1 85/42/1 90/41/1
f 82/43/1 90/41/1 57/46/1
f 82/43/1 57/46/1 59/48/1
f 81/49/1 82/43/1 59/48/1
f 81/49/1 59/48/1 60/50/1
f 80/51/1 81/49/1 79/52/1
f 79/52/1 81/49/1 60/50/1
f 79/52/1 60/50/1 78/53/1
f 78/53/1 60/50/1 63/54/1
f 63/54/1 60/50/1 62/55/1
f 62/55/1 60/50/1 61/56/1
f 77/57/1 78/53/1 63/54/1
f 77/57/1 63/54/1 64/58/1
f 74/59/1 75/60/1 76/61/1
f 65/62/1 66/63/1 67/64/1
f 74/59/1 76/61/1 77/57/1
f 74/59/1 77/57/1 64/58/1
f 74/59/1 64/58/1 65/62/1
f 74/59/1 65/62/1 67/64/1
f 73/65/1 74/59/1 67/64/1
f 73/65/1 67/64/1 68/66/1
f 72/67/1 73/65/1 71/68/1
f 71/68/1 73/65/1 68/66/1
f 71/68/1 68/66/1 70/69/1
f 70/69/1 68/66/1 69/70/1
f 42/71/1 43/72/1 44/73/1
f 45/74/1 46/75/1 47/76/1
f 42/71/1 44/73/1 45/74/1
f 42/71/1 45/74/1 47/76/1
f 41/77/1 42/71/1 54/78/1
f 54/78/1 42/71/1 47/76/1
f 54/78/1 47/76/1 53/79/1
f 53/79/1 47/76/1 48/80/1
f 41/77/1 54/78/1 55/81/1
f 56/82/1 53/79/1 48/80/1
f 40/83/1 41/77/1 55/81/1
f 56/82/1 48/80/1 49/84/1
f 56/82/1 49/84/1 50/85/1
f 39/86/1 40/83/1 55/81/1
f 39/86/1 55/81/1 37/87/1
f 37/87/1 55/81/1 56/82/1
f 37/87/1 56/82/1 52/88/1
f 52/88/1 56/82/1 50/85/1
f 39/86/1 37/87/1 38/89/1
f 51/90/1 52/88/1 50/85/1
f 100/91/2 102/92/2 101/93/2
f 100/91/2 103/94/2 102/92/2
f 99/95/2 103/94/2 100/91/2
f 99/95/2 104/96/2 103/94/2
f 96/97/2 98/98/2 97/99/2
f 105/100/2 107/101/2 106/102/2
f 96/97/2 99/95/2 98/98/2
f 96/97/2 104/96/2 99/95/2
f 96/97/2 105/100/2 104/96/2
f 96/97/2 107/101/2 105/100/2
f 95/103/2 107/101/2 96/97/2
f 95/103/2 120/104/2 107/101/2
f 120/104/2 119/105/2 107/101/2
f 119/105/2 125/106/2 107/101/2
f 125/106/2 124/107/2 107/101/2
f 124/107/2 108/108/2 107/101/2
f 95/103/2 121/109/2 120/104/2
f 122/110/2 125/106/2 119/105/2
f 122/110/2 126/111/2 125/106/2
f 123/112/2 108/108/2 124/107/2
f 94/113/2 121/109/2 95/103/2
f 123/112/2 109/114/2 108/108/2
f 123/112/2 110/115/2 109/114/2
f 93/116/2 121/109/2 94/113/2
f 93/116/2 122/110/2 121/109/2
f 93/116/2 91/117/2 122/110/2
f 91/117/2 126/111/2 122/110/2
f 91/117/2 123/112/2 126/111/2
f 91/117/2 118/118/2 123/112/2
f 118/118/2 113/119/2 123/112/2
f 113/119/2 112/120/2 123/112/2
f 112/120/2 110/115/2 123/112/2
f 93/116/2 92/121/2 91/117/2
f 117/122/2 113/119/2 118/118/2
f 117/122/2 114/123/2 113/119/2
f 111/124/2 110/115/2 112/120/2
f 116/125/2 114/123/2 117/122/2
f 116/125/2 115/126/2 114/123/2
f 176/127/2 178/128/2 177/129/2
f 176/127/2 179/130/2 178/128/2
f 176/127/2 180/131/2 179/130/2
f 175/132/2 180/131/2 176/127/2
f 172/133/2 174/134/2 173/135/2
f 147/136/2 149/137/2 148/138/2
f 172/133/2 175/132/2 174/134/2
f 172/133/2 180/131/2 175/132/2
f 172/133/2 147/136/2 180/131/2
f 172/133/2 149/137/2 147/136/2
f 171/139/2 149/137/2 172/133/2
f 171/139/2 150/140/2 149/137/2
f 170/141/2 169/142/2 171/139/2
f 169/142/2 150/140/2 171/139/2
f 169/142/2 168/143/2 150/140/2
f 168/143/2 153/144/2 150/140/2
f 153/144/2 152/145/2 150/140/2
f 152/145/2 151/146/2 150/140/2
f 167/147/2 153/144/2 168/143/2
f 167/147/2 154/148/2 153/144/2
f 164/149/2 166/150/2 165/151/2
f 155/152/2 157/153/2 156/154/2
f 164/149/2 167/147/2 166/150/2
f 164/149/2 154/148/2 167/147/2
f 164/149/2 155/152/2 154/148/2
f 164/149/2 157/153/2 155/152/2
f 163/155/2 157/153/2 164/149/2
f 163/155/2 158/156/2 157/153/2
f 162/157/2 161/158/2 163/155/2
f 161/158/2 158/156/2 163/155/2
f 161/158/2 160/159/2 158/156/2
f 160/159/2 159/160/2 158/156/2
f 132/161/2 134/162/2 133/163/2
f 135/164/2 137/165/2 136/166/2
f 132/161/2 135/164/2 134/162/2
f 132/161/2 137/165/2 135/164/2
f 131/167/2 144/168/2 132/161/2
f 144/168/2 137/165/2 132/161/2
f 144/168/2 143/169/2 137/165/2
f 143/169/2 138/170/2 137/165/2
f 131/167/2 145/171/2 144/168/2
f 146/172/2 138/170/2 143/169/2
f 130/173/2 145/171/2 131/167/2
f 146/172/2 139/174/2 138/170/2
f 146/172/2 140/175/2 139/174/2
f 129/176/2 145/171/2 130/173/2
f 129/176/2 127/177/2 145/171/2
f 127/177/2 146/172/2 145/171/2
f 127/177/2 142/178/2 146/172/2
f 142/178/2 140/175/2 146/172/2
f 129/176/2 128/179/2 127/177/2
f 141/180/2 140/175/2 142/178/2
f 27/32/3 26/35/3 116/125/3 117/122/3
f 39/86/4 38/89/4 128/179/4 129/176/4
f 15/10/5 14/6/5 104/96/5 105/100/5
f 38/89/6 37/87/6 127/177/6 128/179/6
f 20/25/7 19/24/7 109/114/7 110/115/7
f 60/50/6 59/48/6 149/137/6 150/140/6
f 26/35/4 25/36/4 115/126/4 116/125/4
f 52/88/8 51/90/8 141/180/8 142/178/8
f 4/23/9 3/26/9 93/116/9 94/113/9
f 6/7/10 5/13/10 95/103/10 96/97/10
f 65/62/5 64/58/5 154/148/5 155/152/5
f 81/49/11 80/51/11 170/141/11 171/139/11
f 25/36/12 24/33/12 114/123/12 115/126/12
f 51/90/4 50/85/4 140/175/4 141/180/4
f 54/78/4 53/79/4 143/169/4 144/168/4
f 80/51/13 79/52/13 169/142/13 170/141/13
f 87/38/14 86/37/14 176/127/14 177/129/14
f 74/59/8 73/65/8 163/155/8 164/149/8
f 32/20/5 31/19/5 121/109/5 122/110/5
f 88/39/5 87/38/5 177/129/5 178/128/5
f 48/80/15 47/76/15 137/165/15 138/170/15
f 30/14/4 29/15/4 119/105/4 120/104/4
f 79/52/4 78/53/4 168/143/4 169/142/4
f 68/66/6 67/64/6 157/153/6 158/156/6
f 11/2/16 10/1/16 100/91/16 101/93/16
f 89/40/17 88/39/17 178/128/17 179/130/17
f 55/81/6 54/78/6 144/168/6 145/171/6
f 73/65/11 72/67/11 162/157/11 163/155/11
f 53/79/8 56/82/8 146/172/8 143/169/8
f 72/67/13 71/68/13 161/158/13 162/157/13
f 12/3/5 11/2/5 101/93/5 102/92/5
f 90/41/6 89/40/6 179/130/6 180/131/6
f 33/22/5 36/21/5 126/111/5 123/112/5
f 35/16/4 34/17/4 124/107/4 125/106/4
f 63/54/4 62/55/4 152/145/4 153/144/4
f 86/37/8 85/42/8 175/132/8 176/127/8
f 1/27/4 28/28/4 118/118/4 91/117/4
f 41/77/8 40/83/8 130/173/8 131/167/8
f 13/4/17 12/3/17 102/92/17 103/94/17
f 71/68/4 70/69/4 160/159/4 161/158/4
f 10/1/8 9/5/8 99/95/8 100/91/8
f 62/55/18 61/56/18 151/146/18 152/145/18
f 83/44/19 82/43/19 172/133/19 173/135/19
f 18/18/20 17/12/20 107/101/20 108/108/20
f 61/56/21 60/50/21 150/140/21 151/146/21
f 49/84/6 48/80/6 138/170/6 139/174/6
f 70/69/18 69/70/18 159/160/18 160/159/18
f 78/53/8 77/57/8 167/147/8 168/143/8
f 84/45/22 83/44/22 173/135/22 174/134/22
f 23/29/4 22/30/4 112/120/4 113/119/4
f 31/19/6 30/14/6 120/104/6 121/109/6
f 69/70/21 68/66/21 158/156/21 159/160/21
f 14/6/6 13/4/6 103/94/6 104/96/6
f 58/47/23 57/46/23 147/136/23 148/138/23
f 50/85/24 49/84/24 139/174/24 140/175/24
f 29/15/8 32/20/8 122/110/8 119/105/8
f 43/72/16 42/71/16 132/161/16 133/163/16
f 7/8/16 6/7/16 96/97/16 97/99/16
f 40/83/25 39/86/25 129/176/25 130/173/25
f 64/58/6 63/54/6 153/144/6 154/148/6
f 59/48/17 58/47/17 148/138/17 149/137/17
f 3/26/4 2/31/4 92/121/4 93/116/4
f 44/73/22 43/72/22 133/163/22 134/162/22
f 8/9/26 7/8/26 97/99/26 98/98/26
f 75/60/19 74/59/19 164/149/19 165/151/19
f 2/31/6 1/27/6 91/117/6 92/121/6
f 36/21/6 35/16/6 125/106/6 126/111/6
f 46/75/27 45/74/27 135/164/27 136/166/27
f 16/11/28 15/10/28 105/100/28 106/102/28
f 85/42/5 84/45/5 174/134/5 175/132/5
f 28/28/8 27/32/8 117/122/8 118/118/8
f 34/17/8 33/22/8 123/112/8 124/107/8
f 76/61/22 75/60/22 165/151/22 166/150/22
f 47/76/29 46/75/29 136/166/29 137/165/29
f 17/12/17 16/11/17 106/102/17 107/101/17
f 66/63/23 65/62/23 155/152/23 156/154/23
f 56/82/5 55/81/5 145/171/5 146/172/5
f 5/13/8 4/23/8 94/113/8 95/103/8
f 57/46/5 90/41/5 180/131/5 147/136/5
f 24/33/6 23/29/6 113/119/6 114/123/6
f 37/87/4 52/88/4 142/178/4 127/177/4
f 45/74/5 44/73/5 134/162/5 135/164/5
f 9/5/5 8/9/5 98/98/5 99/95/5
f 67/64/17 66/63/17 156/154/17 157/153/17
f 22/30/8 21/34/8 111/124/8 112/120/8
f 82/43/8 81/49/8 171/139/8 172/133/8
f 21/34/4 20/25/4 110/115/4 111/124/4
f 19/24/6 18/18/6 108/108/6 109/114/6
f 42/71/30 41/77/30 131/167/30 132/161/30
f 77/57/5 76/61/5 166/150/5 167/147/5
